<svg xmlns="http://www.w3.org/2000/svg" height="48" viewBox="0 0 48 48" width="48" style="display:none">
	<defs>
		<path id="path_serverlist" d="m8 0c-4.4 0-8 3.6-8 8v7h48v-7c0-4.4-3.6-8-8-8h-32zm1 5h11v5h-11v-5zm22.5 0a2.5 2.5 0 0 1 2.5 2.5 2.5 2.5 0 0 1-2.5 2.5 2.5 2.5 0 0 1-2.5-2.5 2.5 2.5 0 0 1 2.5-2.5zm8 0a2.5 2.5 0 0 1 2.5 2.5 2.5 2.5 0 0 1-2.5 2.5 2.5 2.5 0 0 1-2.5-2.5 2.5 2.5 0 0 1 2.5-2.5zm-39.5 12v14h48v-14h-48zm9 4.5h11v5h-11v-5zm22.5 0a2.5 2.5 0 0 1 2.5 2.5 2.5 2.5 0 0 1-2.5 2.5 2.5 2.5 0 0 1-2.5-2.5 2.5 2.5 0 0 1 2.5-2.5zm8 0a2.5 2.5 0 0 1 2.5 2.5 2.5 2.5 0 0 1-2.5 2.5 2.5 2.5 0 0 1-2.5-2.5 2.5 2.5 0 0 1 2.5-2.5zm-39.5 11.5v7c0 4.4 3.6 8 8 8h32c4.4 0 8-3.6 8-8v-7h-48zm9 5h11v5h-11v-5zm22.5 0a2.5 2.5 0 0 1 2.5 2.5 2.5 2.5 0 0 1-2.5 2.5 2.5 2.5 0 0 1-2.5-2.5 2.5 2.5 0 0 1 2.5-2.5zm8 0a2.5 2.5 0 0 1 2.5 2.5 2.5 2.5 0 0 1-2.5 2.5 2.5 2.5 0 0 1-2.5-2.5 2.5 2.5 0 0 1 2.5-2.5z"/>

		<path id="path_plus" d="m24 0a24 24 0 0 0 -24 24 24 24 0 0 0 24 24 24 24 0 0 0 24 -24 24 24 0 0 0 -24 -24zm-1.834 10h3.668v12.146h12.166v3.708h-12.166v12.146h-3.668v-12.146h-12.166v-3.708h12.166v-12.146z"/>

		<path id="path_cross" d="m24 0a24 24 0 0 0 -24 24 24 24 0 0 0 24 24 24 24 0 0 0 24 -24 24 24 0 0 0 -24 -24zm-8.588 12.789l8.602 8.604 8.588-8.59 2.595 2.595-8.59 8.588 8.604 8.602-2.623 2.623-8.602-8.604-8.588 8.59-2.595-2.595 8.59-8.588-8.604-8.602 2.623-2.623z"/>

		<path id="path_dev" d="m24 0a24 24 0 0 0 -24 24 24 24 0 0 0 24 24 24 24 0 0 0 24 -24 24 24 0 0 0 -24 -24zm2.811 12.027h2.293l-7.915 23.946h-2.293l7.915-23.946zm-10.047 3.893v2.851l-9.0003 5.014 9.0003 4.969v2.867l-11.192-6.551 0.0003-2.601 11.192-6.549zm14.472 0l11.192 6.549v2.601l-11.192 6.551v-2.867l9-4.969-9-5.014v-2.851z"/>
	</defs>
</svg>